<?xml version="1.0" standalone="no"?>
<!DOCTYPE svg PUBLIC "-//W3C//DTD SVG 20010904//EN"
 "http://www.w3.org/TR/2001/REC-SVG-20010904/DTD/svg10.dtd">
<svg version="1.0" xmlns="http://www.w3.org/2000/svg"
 width="300.000000pt" height="60.000000pt" viewBox="0 0 300.000000 60.000000"
 preserveAspectRatio="xMidYMid meet">
<metadata>
Created by potrace 1.10, written by Peter Selinger 2001-2011
</metadata>
<g transform="translate(0.000000,60.000000) scale(0.050000,-0.050000)"
fill="#1192bc" stroke="none">
<path d="M510 1122 c-183 -47 -300 -142 -175 -142 91 0 74 28 199 -325 42
-118 81 -215 87 -215 6 0 45 97 86 215 107 305 113 314 191 321 37 4 76 -2 87
-13 19 -19 -95 -342 -231 -649 l-60 -136 -79 6 -79 6 -105 252 c-58 138 -127
314 -153 391 l-47 140 -46 -55 c-437 -520 342 -1190 830 -713 l84 83 48 -45
48 -45 14 56 c17 69 170 456 241 611 51 111 56 115 129 115 l77 0 80 -185 c80
-183 188 -461 214 -552 l14 -46 47 44 48 45 85 -83 c231 -224 560 -223 791 2
l85 83 77 -81 c222 -231 563 -232 797 -3 l84 83 81 -82 c226 -226 598 -223
799 6 73 83 78 83 136 16 l46 -53 0 47 c0 48 87 281 217 579 l73 170 80 0 c95
0 106 -17 267 -427 124 -319 130 -350 66 -360 -93 -13 -135 12 -161 97 l-24
80 -147 0 -148 0 -28 -85 c-25 -77 -36 -86 -104 -95 -164 -22 80 -140 286
-140 508 2 735 619 352 957 -215 189 -594 165 -765 -49 -68 -85 -69 -85 -157
12 -194 216 -556 225 -762 20 -36 -36 -65 -73 -65 -82 0 -40 -57 -13 -129 61
-222 227 -584 226 -795 -3 l-77 -84 -84 83 c-228 223 -535 232 -765 21 l-112
-102 -94 92 c-222 219 -576 214 -783 -10 l-79 -86 -83 84 c-137 139 -351 209
-509 168z m2136 -169 c174 -74 215 -343 64 -428 -29 -16 -24 -33 48 -147 106
-166 106 -198 3 -198 -89 0 -95 5 -193 165 -106 172 -164 166 -172 -20 l-6
-135 -80 0 -80 0 -5 369 c-3 204 -2 381 4 395 14 36 331 35 417 -1z m707 -38
c34 -36 114 -136 179 -224 l118 -158 6 223 5 224 80 0 c43 0 79 -9 80 -20 0
-11 0 -177 0 -370 0 -192 0 -363 0 -380 -2 -93 -135 -32 -218 99 -44 71 -119
181 -167 245 l-86 116 -10 -240 -10 -240 -80 0 -80 0 -5 369 c-3 204 -2 381 4
395 19 50 120 29 184 -39z m1260 7 c208 -118 244 -468 64 -636 -97 -91 -395
-144 -525 -94 -42 16 -49 757 -7 776 69 31 386 0 468 -46z"/>
<path d="M2400 717 l0 -102 92 10 c193 22 174 195 -21 195 l-71 0 0 -103z"/>
<path d="M4300 580 l0 -240 59 0 c183 0 289 142 241 322 -28 103 -103 158
-213 158 l-87 0 0 -240z"/>
<path d="M1524 635 l-40 -105 80 -6 c104 -8 107 -4 65 105 -48 127 -60 127
-105 6z"/>
<path d="M5370 655 c-19 -47 -39 -96 -44 -110 -7 -18 16 -25 83 -25 103 0 103
-1 40 155 -34 83 -38 82 -79 -20z"/>
<path d="M1399 275 c-26 -77 -36 -86 -106 -95 -74 -10 -76 -11 -40 -43 152
-135 449 -135 647 -1 l50 34 -78 10 c-79 10 -97 27 -132 125 -18 53 -24 55
-165 55 l-146 0 -30 -85z"/>
</g>
</svg>
